<svg id="Layer_1" data-name="Layer 1" xmlns="http://www.w3.org/2000/svg" viewBox="0 0 32 32"><defs><style>.cls-1{fill:#231f20;}.cls-2{fill:#fbe7c8;}.cls-3{fill:#57caf4;}.cls-4{fill:#d55e27;}.cls-5{fill:#dbae8a;}.cls-6{fill:#c53827;}</style></defs><title>Artboard 1</title><path class="cls-1" d="M14.3,24.14c-.43,0-.36.18-.37.49a11.73,11.73,0,0,1-.29,2.3c-.09.42-.14.84-.2,1.27a.41.41,0,0,0,.24.47.77.77,0,0,1,.48.71.76.76,0,0,1-.56.71,4.26,4.26,0,0,1-1.72.46c-1.16,0-1.32-.43-1.51-1.22a10.84,10.84,0,0,1-.16-4.76c0-.18.09-.36.14-.54a5,5,0,0,0-.79-.12,17.14,17.14,0,0,1-3.22-.4A8.19,8.19,0,0,1,2.63,22,6.45,6.45,0,0,1,0,17a16.49,16.49,0,0,1,1.06-6A12.39,12.39,0,0,1,4.3,6,12.24,12.24,0,0,1,6.54,4.37a22.75,22.75,0,0,1,9.52-2.84,13.49,13.49,0,0,1,7.28,1.22,9.11,9.11,0,0,1,2.75,2c.59.63,1.32,1.14,1.9,1.78A22.39,22.39,0,0,1,30.2,9.57a14.35,14.35,0,0,1,1.6,5,8.32,8.32,0,0,1-.73,5.7,5.25,5.25,0,0,1-2.8,2.49,17.62,17.62,0,0,1-2.77.88,18.7,18.7,0,0,1-2.47.27c-.26,0-.38.07-.41.37A15.06,15.06,0,0,1,22,27a.36.36,0,0,0,.12.44,4.62,4.62,0,0,1,.61.68c.32.42.15.89-.42,1.15a8.28,8.28,0,0,1-1.74.59c-.82.16-1.35-.35-1.55-1.42a21.87,21.87,0,0,1-.24-3.32c0-.88,0-.89-.87-.88C17.81,24.2,15.39,24.17,14.3,24.14Z"/><path class="cls-2" d="M30.81,15.84c-.19,1.71-.41,3.43-1.73,4.72a7.39,7.39,0,0,1-3,1.49,18.16,18.16,0,0,1-4.86.66c-1.5.09-3,.24-4.5.21-2,0-4,0-5.94-.16A24.93,24.93,0,0,1,5.72,22,7.66,7.66,0,0,1,2.2,19.92a4.4,4.4,0,0,1-.87-2.49,12.41,12.41,0,0,1,.81-5.69A13.53,13.53,0,0,1,4.35,7.45,12.67,12.67,0,0,1,6.58,5.54,12.67,12.67,0,0,1,9.53,4a24.64,24.64,0,0,1,3.07-.9,20,20,0,0,1,6-.65A11.29,11.29,0,0,1,24,4.14a19,19,0,0,1,2.48,2,10.5,10.5,0,0,1,1.63,1.8,12.74,12.74,0,0,1,2.53,6.6c0,.22.07.43.1.65S30.79,15.61,30.81,15.84Z"/><path class="cls-3" d="M11.67,29.92c-.07,0-.24,0-.34-.3a10.15,10.15,0,0,1-.59-4.39c0-.23.07-.3.33-.28.63,0,1.26,0,1.89,0,.21,0,.27.05.24.23a13.31,13.31,0,0,1-.67,3.18c-.08.2.06.31.19.42s.34.27.49.43.15.3-.06.38A4.31,4.31,0,0,1,11.67,29.92Z"/><path class="cls-3" d="M19.81,24.71c.37,0,1.09,0,1.71,0,.28,0,.34.13.28.36-.17.68-.35,1.37-.54,2a.6.6,0,0,0,.36.84.65.65,0,0,1,.39.53c0,.2-.26.22-.43.29a2.75,2.75,0,0,1-1.34.12.46.46,0,0,1-.36-.32,7.52,7.52,0,0,1-.44-2.47c0-.37-.07-.74-.11-1.1S19.44,24.71,19.81,24.71Z"/><path class="cls-1" d="M21.55,7.1a4.1,4.1,0,0,1,1.56.17,19.9,19.9,0,0,1,2.3,1.48c1.6,1.15,2.34,2.86,3.1,4.55.46,1,.8,2.08,1.2,3.13.22.57-.1,1-.43,1.39a3.16,3.16,0,0,0-.42.56,3.47,3.47,0,0,1-2,1.53A9.93,9.93,0,0,0,25.11,21a5.35,5.35,0,0,1-4,.81,21.35,21.35,0,0,0-6.58.18,4.56,4.56,0,0,1-4.77-1.85,4.13,4.13,0,0,1-.32-3.47,5.94,5.94,0,0,1,3.29-3.78,9.58,9.58,0,0,0,2.73-1.93,11.45,11.45,0,0,0,1-1.71A3.4,3.4,0,0,1,18.61,7.7,10.74,10.74,0,0,1,21.55,7.1Z"/><path class="cls-4" d="M18.44,20.43a14.33,14.33,0,0,0-3.84.42A3.92,3.92,0,0,1,12,20.47a2.11,2.11,0,0,1-1.47-1.6,4.32,4.32,0,0,1,.72-3.33,9.58,9.58,0,0,1,2.59-2.12,7.53,7.53,0,0,0,2.5-2.25c.33-.56.51-1.22.87-1.76a2.85,2.85,0,0,1,3.69-.84A4.82,4.82,0,0,1,23.14,11a2.58,2.58,0,0,0,1.13,1A2.17,2.17,0,0,1,25,13.17c.44,1,.82,2.08,1.24,3.11a.82.82,0,0,1,0,.67A3.73,3.73,0,0,1,23.33,19a6.3,6.3,0,0,0-1.39.58C20.79,20.23,19.49,20.11,18.44,20.43Z"/><path class="cls-5" d="M21.28,7.82c1.59,0,2.75.89,4,1.69.81.52,1,1.38,1.49,2A10.43,10.43,0,0,1,28.33,15a3.77,3.77,0,0,0,.5,1.07c.53.73,0,1.2-.3,1.79C28,19,26.87,19.32,25.85,19.74a8.64,8.64,0,0,1-3.78,1c-.11,0-.28.06-.31-.07s.14-.13.24-.18a11.23,11.23,0,0,1,2.81-1,3,3,0,0,0,2.08-1.9c.22-.47.53-.91.3-1.5-.56-1.42-1.07-2.86-1.74-4.25a1.11,1.11,0,0,0-.62-.58c-.9-.29-1.25-1.1-1.78-1.75A4.3,4.3,0,0,0,21,8.08c-.13,0-.36,0-.35-.16s.24-.08.37-.1Z"/><path class="cls-1" d="M17.32,16.37A.88.88,0,0,1,16.59,15a2.81,2.81,0,0,1,.79-1,.76.76,0,0,1,.81,0,.82.82,0,0,1,.39.76,1.78,1.78,0,0,1-1.14,1.57Z"/><path class="cls-1" d="M21,14.08a.85.85,0,0,1,.83,1,1.52,1.52,0,0,1-1.2,1.16.67.67,0,0,1-.66-.14.59.59,0,0,1-.17-.72,2.37,2.37,0,0,1,.86-1.25A.59.59,0,0,1,21,14.08Z"/><path class="cls-6" d="M14.6,20.84a14.33,14.33,0,0,1,3.84-.42c1-.32,2.35-.2,3.5-.83A6.3,6.3,0,0,1,23.33,19a3.73,3.73,0,0,0,2.9-2.07.82.82,0,0,0,0-.67l0-.07c-.23.69-.59,1.42-1.28,1.58-.35.08-.75,0-1,.21-.12.09-.21.23-.34.31a2.25,2.25,0,0,1-.83.17c-.69.14-1.22.92-1.91.81a4.4,4.4,0,0,1-1-.49c-.86-.37-1.79.25-2.71.43a4.68,4.68,0,0,1-1.91-.09A2.26,2.26,0,0,1,13.48,18c-.23-.62.07-1.34-.14-2a3.74,3.74,0,0,1-.23-.63,1.44,1.44,0,0,1,.17-.76A10.66,10.66,0,0,1,14,13.29l-.19.13a9.58,9.58,0,0,0-2.59,2.12,4.32,4.32,0,0,0-.72,3.33A2.11,2.11,0,0,0,12,20.47,3.92,3.92,0,0,0,14.6,20.84Z"/><path class="cls-3" d="M17.92,3.09A.89.89,0,0,0,18,2.43,20,20,0,0,0,13.16,3a2.14,2.14,0,0,0-.14.3.57.57,0,0,0,0,.37c.08.24.38.3.63.29.48,0,.95-.14,1.42-.16s.79.05,1.19,0A3.15,3.15,0,0,0,17,3.67,1.57,1.57,0,0,0,17.92,3.09Z"/><path class="cls-6" d="M16.74,12.35c-.11-.73.5-1.25,1.1-1.58a.61.61,0,0,1,.33-.09.48.48,0,0,1,.31.18.56.56,0,0,1,.12.56.22.22,0,0,1-.09.12c-.1.06-.22,0-.33,0a.77.77,0,0,0-.79.12A1.23,1.23,0,0,0,17,12C16.94,12.15,16.76,12.53,16.74,12.35Z"/><path class="cls-6" d="M20.51,11c0-.11.39-.38.6-.46a.64.64,0,0,1,.64.06.82.82,0,0,1,.21.91.22.22,0,0,1-.07.1c-.08.06-.18,0-.22-.11s-.06-.2-.1-.3a.49.49,0,0,0-.31-.24.76.76,0,0,0-.45,0C20.7,11,20.52,11.1,20.51,11Z"/></svg>