<?xml version="1.0" encoding="utf-8"?>
<!-- Generator: Adobe Illustrator 22.1.0, SVG Export Plug-In . SVG Version: 6.00 Build 0)  -->
<svg version="1.1" id="Layer_1" xmlns="http://www.w3.org/2000/svg" xmlns:xlink="http://www.w3.org/1999/xlink" x="0px" y="0px"
	 viewBox="0 0 288 288" style="enable-background:new 0 0 288 288;" xml:space="preserve">
<style type="text/css">
	.st0{fill:#4B5EAA;}
	.st1{fill:#FFFFFF;}
</style>
<g>
	<rect class="st0" width="288" height="288"/>
</g>
<path class="st1" d="M254.8,149.8c-1.2-6.6-3.9-12.9-7.8-18.4c-1-1.3-2-2.6-3.1-3.8c-0.6-0.6-1.2-1.3-1.8-1.9s-1.1-0.8-1.1-1.6
	c0.3-3.4,0.4-6.9,0.3-10.4c-0.4-9.2-2.8-18.4-7.8-26.3c-0.9-1.4-1.8-2.8-2.9-4c5.2-3,14.8-9.9,9.4-23.6c-6.7-17.1-25-37.6-51.5-44.8
	s-45.9-6.9-66.7-4.2C101,13.6,80.9,21.3,58.3,47.6c-9.8,11.4-8,21.8-5.3,27.7c3.5,7.7,10,9.1,10,9.1c-1,1.3-2.7,6-3.4,8
	c-2.5,6.8-4,13.8-5.1,20.9c-0.3,2-0.5,4.1-0.7,6.2c0,0.3,0.1,0.9-0.1,1.1c-0.1,0.3-0.7,0.4-1,0.5c-1,0.5-2,1.1-2.9,1.7
	c-7.3,4.7-12,12.2-14.6,20.4c-1.4,4.4-2.2,8.9-2.5,13.5c-0.3,4.5-0.4,9,0.4,13.5c0.8,4.4,2.4,8.6,4.4,12.6c1.9,3.9,4.3,7.6,7.1,10.8
	c5.8,6.6,13.9,10.4,22.4,12.1c0.5,0.1,1.6,0.1,1.8,0.5c0.1,0.2,0.1,0.5,0.1,0.7c0.2,1,0.3,2.1,0.6,3.1c2,9.1,6.1,17.7,12,24.9
	c4.3,5.2,9.5,9.5,15.4,12.8c0.3,0.2,1.5,0.6,1.7,0.9c0.2,0.5-0.5,1.8-0.6,2.3c-0.5,2.2-0.8,4.5-0.8,6.8c-0.1,3.6,0.3,7.7,2,10.9
	c1.5,2.8,4.1,4.7,6.8,6.2c1.7,0.9,3.3,1.7,5.2,2c3.7,0.8,7.6,1,11.4,1.3c11.2,0.8,22.6,0.9,33.8,0.6c9.6-0.3,20.2-0.4,28.9-5
	c2.5-1.3,4.9-3.2,6.4-5.7c1.7-2.9,1.9-6.5,1.9-9.8c0-3.5-0.4-7-1.1-10.4c-0.1-0.5-0.2-0.9-0.3-1.4c-0.1-0.4-0.3-0.5,0.1-0.8
	c0.5-0.4,1.6-0.5,2.1-0.7c0.7-0.2,1.5-0.5,2.2-0.8c10.1-4.2,17.5-12.7,22.4-22.3c3.2-6.3,5.6-13.2,6.9-20.1c0.1-0.3,0-0.9,0.2-1.2
	c0.3-0.5,1.9-0.8,2.4-1c1.1-0.5,2.1-1.1,3.2-1.7c1.9-1.1,3.7-2.3,5.4-3.7c6.4-5.1,11.7-11.9,15-19.5
	C255.4,166.8,256.3,158.2,254.8,149.8z"/>
<g>
	<g>
		<path class="st1" d="M45.2,162.3c-0.2-6.7,1-12.9,3.7-18.7c2.9-6.5,7.8-10.7,15-12c1.4-0.3,2.8-0.3,4.2-0.3c0.3,0,0.8,0.1,0.9-0.1
			c0.2-0.3-0.3-0.5-0.4-0.7c-1-1.8-1.9-3.5-2-5.6c-0.1-3.1,2.5-4.8,4.6-5.4c0.1,0,0.2,0,0.3,0c0.6-0.1,1.2-0.3,1.8-0.4
			c-0.1-0.6-0.8-0.9-1.1-1.3c-1.9-2.5-3.4-5.2-3.3-8.4c0.1-1.8,0.6-3.4,1.9-4.8c0.9-0.9,1.9-1.4,3-1.1c1.3,0.4,0.8-0.3,0.6-0.8
			c-1.5-3.1-2.3-6.3-1-9.7c1.1-3.1,2.6-4.3,5.8-4.2c1,0,0.5-0.6,0.5-0.8c0-2.9-0.2-5.8,0.7-8.5c1-3.3,3.1-4.7,6.4-3.6
			c1.1,0.4,1-0.4,1.1-0.9c0.7-2.9,1.6-5.7,3.3-8.2c1.6-2.4,3.5-3.2,6.1-2.3c0.9,0.3,1.1,0.1,1.5-0.7c0.8-2,1.8-3.9,3-5.6
			c1.8-2.4,4.7-2.7,6.9-0.7c0.9,0.9,1,0.2,1.2-0.4c0.5-2.1,1.7-3.8,3.2-5.2c2.2-2.1,4.9-2.2,6.9,0c0.9,0.9,0.9,0.4,1.3-0.3
			c1.1-2,2.3-4,4.9-4.1c1.7-0.1,2.7,1.1,3.7,2.2c0.7,0.8,1.1,0.6,1.5-0.2c1.5-2.5,3.8-3.8,6.6-4.1c2.4-0.3,4.2,1.1,5.5,2.8
			c0.9,1.3,1.1,0.9,1.9-0.1c1.3-1.7,2.7-3.6,5.4-3.5c1.7,0.1,2.8,1.1,3.7,2.3c1,1.2,1.7,0.8,2.5-0.1c1.1-1.1,2.3-1.8,3.9-1.5
			c0.3,0,0.6,0,0.9,0.3c1.7,1.8,3.8,3.3,4.5,5.8c0.3,1.1,0.5,0.6,1,0.1c1.4-1.4,2.9-2.6,4.7-3.3c3.4-1.5,5.4,0.5,5.8,4.3
			c0.1,1.3,0.2,1.5,1.5,0.9c2.5-1.2,4.9-0.3,6.4,2c0.2,0.3,0.4,0.5,0.5,0.8c0.6,1,0.9,2.4,1.8,2.9c0.9,0.6,1.8-0.8,2.9-1
			c3.6-0.8,7.2,2,7.3,5.8c0,0.2,0,0.4,0,0.7c0,1.3-0.6,3,2,2.1c1.8-0.6,3,0.8,3.9,2.1c1.4,2.1,2.4,4.3,2.1,6.9c-0.1,0.7,0,1.4,1,1.5
			c4.1,0.4,5.6,2,6.2,6c0.3,1.6,0.3,3.2,0.3,4.8c0,0.4-0.2,0.9,0.6,1c3.3,0.7,5.4,2.7,6.6,5.8c1.1,2.9,1.5,5.8,1.2,8.8
			c-0.1,0.7,0.1,0.9,0.6,1.2c4,2.4,4.8,4.9,3.9,9.6c-0.4,2.1-1.2,3.9-2.5,5.6c-0.4,0.5-0.3,0.6,0.2,0.9c3.4,1.9,3.3,4.8,1.5,7.9
			c-0.6,1.1-1,1.4,0.4,2.3c8,5.1,13.2,12.4,14.9,21.7c1.7,9.2-0.7,17.6-6.5,25c-3.1,4-6.7,7.3-11.2,9.7c-3.3,1.7-6.8,2.7-10.5,2.3
			c-1.2-0.1-1.3,0.2-0.7,1.2c1.2,2,1.5,4.1,0.2,6.4c-0.7,1.1-1.6,1.8-2.7,2.1c-1,0.4-1.1,0.5-0.6,1.5c1.2,2.8,1.2,6.4-1,7.9
			c-2.2,1.4-2.9,1.2-3.2,2c-0.3,0.9,0.6,2.2,0.7,3.5c0.3,3.4-1,5.8-4.1,7.3c-1.1,0.5-2.3,0.6-3.3,0.2c-0.8-0.2-0.8,0-0.8,0.6
			c-0.1,2.2-0.7,4.2-3.1,5.2c-1.3,0.5-3.4,0.1-4.8-0.6c-1.1-0.5-1.4-1.4-1.8-1.2c-0.2,0.1-0.1,0.7-0.1,1.1c0,2.3-0.1,4.5-1.6,6.4
			c-1.5,2-3.6,3.1-6,2.4c-0.8-0.2-0.8-0.1-1.1,0.6c-1.2,2.3-2.7,4-5.4,3.8c-1.3-0.1-2.2-0.7-3.1-1.6c-0.2-0.2-0.5-0.6-0.7-0.6
			c-0.4,0.1-0.2,0.9-0.5,2c-0.3,1.4-0.7,3.4-2.8,5.1c-2.3,1.8-5.5,1.4-7.6-0.7c-0.6-0.6-0.7-0.5-1,0.2c-0.8,2.1-2.2,3.8-4.4,4.7
			s-4.8-0.1-6.2-2.4c-0.4-0.7-0.8-2.1-1.3-2.1s-1.1,0.8-1.8,1.2c-3,1.6-6.4,0.8-7.9-2.1c-0.4-0.8-0.7-1.2-1.5,0
			c-1.3,2-3.3,3-5.7,2.5c-2.5-0.5-4-2.3-5.1-4.5c-0.2-0.5-0.7-2.1-0.8-2.3c-0.2-0.6-0.7-0.2-1.3,0.5c-2.9,3-6.8,2.4-8.9-1.3
			c-0.5-0.8-0.6-2.1-1.3-2.5c-0.8-0.4-0.7,0.4-2.1,1.3c-3.4,2.2-6.5,0.1-7.7-3.6c-0.7-2.1-0.6-4.4-0.2-6.6c0.1-0.3-0.2-1-0.9-0.5
			c-1.2,1.2-2.8,1.9-4.4,2.5c-2.6,1-5.3-0.7-5.5-4.3c-0.1-2.1,1.6-6.4,0.8-7.1c-0.2-0.2-0.7,0.1-1,0.2c-2.7,0.8-4.8,0.3-6-1.5
			s-1-3.8-0.8-5.8s2-5.4,1.9-6.1c-0.1-0.6-0.8,0.1-2.5-0.4c-2.3-0.6-3.5-3.5-3.1-6.7c0.2-1.4,0.6-3,1.3-4.4c0.4-0.8-0.2-0.4-0.6-0.3
			c-7.1,1.8-13.9,0.4-20.4-2.6c-4.4-2-7.5-5.5-10.1-9.7c-1.9-3.1-3.3-6.3-4.4-9.7C45.3,168.1,45,165,45.2,162.3z"/>
	</g>
	<g>
		<g>
			<path class="st1" d="M231.8,65.5c-0.6-2-2-3.1-3.8-3.8c-0.9-0.3-1.8-0.5-2.7-0.5c-3,0-4.8,2.1-4.5,5.6c0.1,0.9,0.4,1.7,0.6,2.6
				c0.1,0.3,0.1,0.8-0.2,1c-0.1,0-0.1,0-0.2,0c-0.2,0-0.5-0.2-0.7-0.4c-0.6-0.5-1.3-1-2-1.5c-0.5-0.4-1-0.6-1.6-0.6
				c-0.3,0-0.6,0.1-0.9,0.2c-1,0.5-1,1.3-0.9,2.2c0,0.8,0.5,1.3,1.1,1.9c0.4,0.9,1.5,1.2,2.3,1.8c0.8,0.5,1.7,0.8,2.7,0.8
				c2.2,0,4.4-1.4,4.7-4.3c0.1-1.4-0.3-2.8-0.6-4.1c-0.2-1,0.1-1.4,0.8-1.4c0.1,0,0.3,0,0.5,0c1.2,0.2,2.3,0.6,3,1.7
				c0.3,0.4,0.5,0.8,1,0.8c0.2,0,0.4-0.1,0.6-0.2C231.5,67,232.1,66.5,231.8,65.5z"/>
		</g>
		<g>
			<path class="st1" d="M98,34.5c-1.1,0.9-1.9,1.9-2.7,3.1c-1.1,1.7-1.6,3.6-0.9,5.5c0.9,2.6,2.7,4.5,5.2,5.6
				c1.1,0.5,2.4,0.8,3.6,0.8c2.1,0,4.2-0.7,5.4-2.6c1.6-2.4,0.8-4.6-0.2-6.9c-0.7-1.4-1.7-2.4-2.6-3.6c-1.5-2.2-3.5-3.9-5.2-6
				c-1.1-1.4-2.3-2.7-3.6-3.9c-0.4-0.4-0.9-0.7-1.4-0.7c-0.3,0-0.6,0.1-0.9,0.3c-0.9,0.7-0.6,1.4-0.2,2.2c0.9,1.7,2.2,3.2,3.5,4.7
				C98.7,33.6,98.6,34,98,34.5z M99.1,39.8c0.5-0.7,1.1-1.3,1.7-1.9c0.2-0.2,0.4-0.3,0.6-0.3s0.4,0.1,0.6,0.4c0.4,0.6,0.8,1,1.1,1.6
				c0.3,0.5,0.6,1.1,0.9,1.6c0.1,0.1,0.4,0.7,0.5,0.8c0.5,0.9,0.7,1.8,0.3,2.4c-0.4,0.4-0.8,0.5-1.3,0.5c-0.6,0-1.3-0.2-2-0.4
				c-1-0.3-1.7-0.9-2.3-1.7C98.5,41.8,98.4,40.7,99.1,39.8z"/>
		</g>
		<g>
			<path class="st1" d="M192.6,51.9c1.2-1.7,2.6-4.7,3.7-7.2c1.6-3.4,3.3-6.6,4.5-10.2c0.7-2.3,0-4-2.2-5c-1.2-0.5-2.5-0.7-3.6-0.7
				c-2.1,0-4,0.7-5.9,1.8c-3.6,2.3-3.9,5.4-1.4,8c1.2,1.3,2.9,1.7,4.7,1.9c0,0,0.1,0,0.2,0h0.1c0.3,0,0.8,0,0.3,0.7
				c-1,1.7-1.5,3.7-2.6,5c-0.8,1.3-1.4,2.3-2,3.3c-0.7,1.3-0.2,3.4,0.8,3.9c0.2,0.1,0.5,0.2,0.8,0.2
				C190.7,53.7,191.7,53.2,192.6,51.9z M193,36.5c-1.1,0-2.1-0.2-2.5-0.8c-0.4-0.5,0.1-0.9,0.3-1.1c1.4-1.1,3.1-1.8,4.9-1.8
				c0.1,0,0.1,0,0.2,0c1.2,0,1.5,1,0.6,2.4C196,36,194.4,36.5,193,36.5z"/>
		</g>
		<g>
			<path class="st1" d="M93.4,46.8c-0.3-0.3-0.6-0.9-1.1-1.3c-2.1-1.7-4.5-2.4-7.1-2.8c-0.2,0-0.4,0-0.7,0c-3.1,0-6.4,2.7-6.8,5.7
				c-0.2,1.3,0.5,2.8,1.5,2.8c0.1,0,0.1,0,0.2,0c1.1,0,1.3-1,1.5-1.8c0.5-1.5,1.7-2.7,3.1-2.7c0.1,0,0.1,0,0.2,0
				c1.1,0.1,1.1,0.3,0.7,1.1c-1.3,2-1.3,4.1-0.7,6.3c0.8,2.5,2.4,3.7,4.3,3.7c0.9,0,2-0.3,3-0.8C95.1,55.3,95.7,49.6,93.4,46.8z
				 M90,52.9c-0.3,0.5-0.8,0.6-1.2,0.6h-0.1c-0.5,0-0.6-0.5-0.7-1c-0.4-1.4,0.2-2.6,1.1-3.6c0.1-0.2,0.3-0.3,0.4-0.3
				c0.2,0,0.4,0.2,0.7,0.7C90.5,50.3,90.9,51.6,90,52.9z"/>
		</g>
		<g>
			<path class="st1" d="M150.3,27.1c-1.5,0.1-2.8,0.7-4.1,1.3c-2.2,1-3.1,3.5-2.1,5.7c0.8,2,3.3,3.5,5.8,3.5c0.1,0,0.1,0,0.2,0
				c2.3-0.1,4.7-1.4,5.5-3.2c0.9-1.8,0.7-2.3,0.7-3.2c-0.1-1.9-0.5-3.8-1.1-5.6c-0.5-1.6-0.9-3.4-2.7-4.3c-0.8-0.4-1.6-0.6-2.4-0.6
				c-1.7,0-3.2,0.9-4.6,1.9c-0.7,0.5-1,1.4-0.4,2.3c0.4,0.6,0.9,1,1.5,1c0.2,0,0.4,0,0.7-0.1c0.8-0.3,1.6-0.5,2.1-1.2
				c0.2-0.2,0.4-0.4,0.7-0.4c0.1,0,0.3,0.1,0.4,0.2c0.6,0.5,0.6,1.3,0.8,2C151.4,27,150.8,27,150.3,27.1z M151.6,31.4
				c0.5,0,0.5,0.6,0.3,0.9c-0.4,0.6-1,0.7-1.5,0.7c-0.3,0-0.7-0.1-1-0.1c-0.4-0.1-1.1-0.3-0.7-0.6c0.7-0.6,1.7-0.9,2.6-0.9
				C151.3,31.4,151.5,31.4,151.6,31.4z"/>
		</g>
		<g>
			<path class="st1" d="M223.7,55.3c-0.5-1.3-1.3-2.4-2.4-3.2c-1.6-1.1-3.2-1.6-4.9-1.6c-2.2,0-4.4,0.9-6.2,2.6
				c-1.8,1.6-2.7,3.9-1.9,6.3c0.9,2.7,2.7,4.8,5.9,5.3c0.3,0,0.5,0.1,0.8,0.1c0.5,0,0.9-0.1,1.1-0.5c0.4-0.8,0.2-1.6-0.3-2.4
				c-0.7-1.1-1.9-1.7-2.5-2.7c-0.1-0.1-0.2-0.3-0.3-0.4c-0.3-0.5-1-1-0.4-1.5c0.1-0.1,0.2-0.1,0.3-0.1c0.4,0,0.8,0.4,1.1,0.8
				c1,1,2.2,1.8,3.5,2.4c0.7,0.3,1.4,0.5,2.2,0.5c1,0,1.9-0.3,2.7-0.9C223.7,58.8,224.4,57.2,223.7,55.3z M219.5,56.5
				c-0.1,0.2-0.2,0.2-0.3,0.2c-0.2,0-0.4-0.2-0.6-0.3c-0.8-0.4-2.1-1-2.5-1.3s-0.1-0.4,0.2-0.5c0.1,0,0.1,0,0.2,0
				c0.9,0,1.7,0.4,2.5,0.8C219.5,55.7,219.7,56.1,219.5,56.5z"/>
		</g>
		<g>
			<path class="st1" d="M184,33.4c0-1.9-0.5-3.7-1-5.5c-0.7-2.4-2.6-3.4-4.5-3.4c-1.5,0-2.9,0.6-3.8,1.7c-0.6,0.6-0.4,1.2-0.2,1.7
				s0.8,0.9,1.2,0.9h0.1c0.5-0.1,1.5-0.4,2.2-0.7c0.2-0.1,0.3-0.1,0.4-0.1c0.4,0,0.7,0.3,0.9,0.5c0.5,0.5,0.5,1.2,0.3,1.8
				c-0.1,0.1-0.2,0.2-0.3,0.2c-0.2,0-0.4-0.1-0.6-0.1c-0.3,0-0.9-0.1-1.6-0.1c-0.5,0-1,0-1.4,0.1c-2.7,0.3-4.6,2.4-4.4,4.8
				c0.2,1.9,2.5,3.5,3.1,3.8s2.3,0.9,3.7,0.9c0.2,0,0.4,0,0.6,0C182.1,39.2,183.9,36.7,184,33.4z M179,35.2c-0.3,0.2-0.6,0.3-1,0.3
				s-0.7-0.1-1-0.3c-0.5-0.3-1-0.5-0.7-0.7s0.7-0.2,1-0.2c0.4,0,0.8,0.1,1.2,0.2C178.9,34.7,179.4,34.9,179,35.2z"/>
		</g>
		<g>
			<path class="st1" d="M84.3,63.4c0.6,0,1.2-0.3,1.6-0.9c0.7-1,0.6-2-0.1-2.9c-0.3-0.3-0.6-0.7-1-0.9c-2.8-1.9-5.9-3.2-9.1-4.1
				c-0.6-0.2-1.2-0.3-1.8-0.3c-1.3,0-2.6,0.5-3.6,1.9c-0.8,1.1-1,2.2-0.9,3.4c0.1,1.1-0.1,1.6-0.9,1.6c-0.2,0-0.4,0-0.7-0.1
				c-0.2,0-0.4-0.1-0.6-0.1c-1.2,0-2.4,0.9-3,2.1c-1.7,3.5-1.1,6.5,2.3,9.6c1.3,1.4,3.1,2.6,5,3.4c0.4,0.2,0.8,0.3,1.3,0.3
				s1-0.2,1.3-0.7c0.6-0.9-0.1-1.6-0.7-2.1c-1.3-1.1-2.4-2.5-4-3.4c-1.1-0.7-1.7-1.9-2.2-3.2c-0.2-0.6-0.1-1.3,0.2-1.7
				c0.1-0.1,0.2-0.1,0.3-0.1c0.3,0,0.7,0.3,1,0.4c1.5,0.8,3,1.5,4.5,2.2c0.4,0.2,0.8,0.3,1.1,0.3c0.8,0,1.4-0.4,2-1.2
				c0.8-1,0.4-2-0.1-2.9c-0.8-1.2-1.9-2.3-2.2-3.8c-0.1-0.4-0.2-1,0-1.3c0,0.1,0.1,0.1,0.2,0.1c0.3,0,0.6,0.2,0.9,0.3
				c0.6,0.2,1.3,0.4,1.9,0.6c2.2,0.8,4.1,2.1,6.1,3.2C83.5,63.2,83.9,63.4,84.3,63.4z"/>
		</g>
		<g>
			<path class="st1" d="M133.9,28.3L133.9,28.3c0.6,0,1.1,1.1,1.3,1.8c0.6,1.6,1,3.2,1.6,4.8c0.5,1.3,1.5,2,2.6,2
				c0.3,0,0.6,0,0.9-0.1c1.5-0.4,1.6-1.8,1.2-2.8c-1.1-2.9-1.6-6-3.7-8.4c-1.3-1.5-2.9-2.4-4.4-2.4c-1.3,0-2.6,0.6-3.7,2
				c-0.5,0.6-0.8,0.9-1.2,0.9c-0.3,0-0.7-0.2-1.2-0.6c-1-0.8-1.9-1.2-2.8-1.2c-1.8,0-3.4,1.5-4,3.3c-1.1,3.7-0.5,7.3,1.3,10.7
				c0.4,0.7,0.9,1.2,1.6,1.2c0.2,0,0.4,0,0.6-0.1c1.1-0.4,1.4-1.5,1-2.4c-0.5-1.1-0.5-2.3-0.7-3.4c-0.1-1.3-0.5-2.6-0.1-3.9
				c0.1-0.2,0.2-0.5,0.4-0.7c0.1,0,0.2-0.1,0.3-0.1c0.3,0,0.6,0.3,0.8,0.5c0.9,1.2,1.3,2.6,1.3,4.2c0,0.7,0.2,1.3,0.6,1.8
				c0.5,0.9,1.3,1.5,2.1,1.5c0.2,0,0.4,0,0.7-0.1c1.1-0.4,2-1.3,1.7-2.7c-0.3-1.3-0.1-2.6,0.4-3.9C132.8,29.3,133.3,28.3,133.9,28.3
				z"/>
		</g>
		<g>
			<path class="st1" d="M165.9,26.7c0.5,0,0.9,0.2,1.4,0.7c0.3,0.3,0.6,0.7,1,0.7c0.1,0,0.3,0,0.4-0.1c0.7-0.3,1-0.8,1.1-1.6
				c0.2-2-1.7-3.8-4-3.8c-0.3,0-0.7,0-1,0.1c-3.5,0.8-6.2,4.4-6.6,8.6c0,0.9-0.2,1.7,0.1,2.6c1,2.6,3.4,4,6,4c1.1,0,2.3-0.3,3.3-0.8
				c0.8-0.5,1.5-1.2,1.3-2.3c-0.1-0.4-0.3-0.6-0.5-0.8c-0.6-0.5-2-0.5-2.3-0.5c0,0,0,0-0.1,0c-0.4,0-0.7,0-1.1,0
				c-0.6,0-1.2-0.1-1.7-0.4c-1.6-1-1.5-3.3,0.2-4.9C164.6,27.2,165.3,26.7,165.9,26.7z"/>
		</g>
		<g>
			<path class="st1" d="M201.6,50.6c0.9,1.2,2.8,1.9,4.6,1.9c1,0,1.9-0.2,2.7-0.6c1.6-1,3.2-2.1,4.6-3.5c1.1-1.2,1.4-2.5,0.6-3.4
				c-0.3-0.4-0.9-0.6-1.4-0.6c-0.6,0-1.4,0.3-2,0.8c-0.4,0.3-0.7,0.7-1.1,1c-0.7,0.7-1.4,1.3-2.3,1.8c-0.5,0.3-1,0.4-1.5,0.4
				c-0.6,0-1.1-0.2-1.6-0.8c-0.8-1-0.5-1.9,0.3-2.9c1-1.2,1.7-2.5,2.5-3.9c0.4-0.7,0.5-1.4-0.3-2c-0.4-0.3-0.8-0.5-1.2-0.5
				c-0.3,0-0.5,0.1-0.9,0.2c-1.5,0.5-2,1.9-2.8,3C199.6,44.2,198.4,47.7,201.6,50.6z"/>
		</g>
	</g>
	<g>
		<g>
			<path class="st1" d="M172.7,260.2c-1.3,0.5-3.2,0.4-3.7,2c-0.6,1.6,1.3,3.2,2.9,3.2h0.1c3.3-0.1,7-2.3,7.7-5.8
				c0.6-3.3-1.3-4.8-3.5-6.2c-0.6-0.4-1.6-0.6-1.9-1.1s1.2-1.2,2.1-1.4c0.1,0,0.1,0,0.2,0c0.5,0,0.8,0.2,1.1,0.2
				c0.2,0,0.5-0.1,0.7-0.4c1.3-1.4-0.6-3-1.9-3.2c-0.3-0.1-0.5-0.1-0.8-0.1c-2.9,0-6.2,2.5-6.2,5.4c0,2.4,1.9,3.2,3.7,4.2
				C175.2,258.2,175,259.3,172.7,260.2z"/>
		</g>
		<g>
			<path class="st1" d="M115.4,259.6c0.1,0,0.2,0,0.4,0c0.4,0,0.7,0.1,1.1,0.1c0.8,0,1.6-0.1,2.4-0.3c2.1-0.5,3.5-1.9,4.2-3.9
				c0.9-2.3,0.4-4.6-0.9-6.7c-1-1.6-3-3-5.1-3c-1.3,0-2.6,0.5-3.7,1.7c-2.7,2.8-3.6,6.2-3.6,9.9c0,3.3,0.5,6.5,1.9,9.5
				c0.4,0.9,1.1,1.2,1.9,1.2c0.3,0,0.6,0,0.9-0.1c1.1-0.3,1.1-1.4,0.9-2.3c-0.3-1.6-0.8-3.1-1.2-4.6
				C114,259.9,114.6,259.6,115.4,259.6z M114.6,254.2c0.4-1.4,1-2.7,2-3.7c0.3-0.3,0.5-0.5,0.8-0.5s0.5,0.1,0.8,0.4
				c1,1,1.7,2.1,1.2,3.4c-0.6,1.7-2.6,1.6-3.7,1.7c-0.1,0-0.2,0-0.3,0C114.5,255.6,114.3,255.2,114.6,254.2z"/>
		</g>
		<g>
			<path class="st1" d="M142.3,254.9c-1.3,2-1.9,4.1-2,6.5c-0.1,3.3,2.5,6.7,6.4,6.9c0.3,0,0.6,0,0.9,0c3.2,0,4.3-0.8,5.3-1.6
				c1-0.9,1.2-1.4,0.8-2.3c-0.2-0.5-0.5-0.6-1-0.6c-0.3,0-0.7,0.1-1.1,0.2c-0.8,0.2-2.6,0.7-4.3,0.8c0,0,0,0-0.1,0
				c-0.8,0-1.9-0.9-2.3-1.7c-0.3-0.6-0.4-0.8,0.4-0.9c1.8-0.2,3.5-0.7,5.1-1.6c2.9-1.5,3-4.6,1.7-6.1c-1.1-1.3-2.9-1.9-4.6-1.9
				C145.4,252.4,143.3,253.3,142.3,254.9z M148.6,257c0.3,0.5-0.4,0.8-1,1.1c-0.4,0.2-1.4,0.4-2.1,0.4c-0.3,0-0.5,0-0.6-0.1
				c-0.1-0.3,0.1-0.5,0.3-0.7c0.3-0.3,0.7-0.6,1.1-0.9c0.4-0.2,0.7-0.3,1.1-0.3C148,256.4,148.4,256.6,148.6,257z"/>
		</g>
		<g>
			<path class="st1" d="M135.9,252.7c-1-0.8-2.2-1.2-3.5-1.2c-1.1,0-2.3,0.3-3.2,1c-2.4,1.6-2.9,4.1-2.9,7.2c0.2,2.1,0.2,4.7,1.6,7
				c0.4,0.6,0.9,1,1.4,1c0.1,0,0.3,0,0.4-0.1c0.8-0.2,1.2-0.9,1.1-1.7c0-0.4,0-0.9-0.1-1.3c-0.4-1.7-0.6-3.5-0.6-5.3
				c0.1-2.2,0.6-3.1,2.1-3.1c0.5,0,1,0.1,1.7,0.2c0.3,0.1,0.5,0.1,0.8,0.1c0.7,0,1.4-0.3,1.8-1.2
				C137.1,254.1,136.7,253.3,135.9,252.7z"/>
		</g>
		<g>
			<path class="st1" d="M160.3,267.9c2.1-0.2,4.1-1.4,5.1-3.2c1.8-3.1,0.4-5.4-1.9-7.1c-1-0.8-3.4-1.2-3.5-1.9
				c-0.1-0.6,0.9-1.2,2.1-1.2c0.1,0,0.2,0,0.3,0c0.5,0,0.9,0.2,1.3,0.2c0.3,0,0.7-0.2,1-0.7c1.1-1.8-1.1-3.5-2.7-3.7l0,0
				c-3.5,0-8.4,4.2-5.8,7.9c1.3,1.8,4.3,1.2,5.3,2.8c1.5,2.4-2.9,2.6-4,3.4c-2.5,1.8,0.5,3.4,2.5,3.4
				C160.1,268,160.2,268,160.3,267.9z"/>
		</g>
	</g>
	<path class="st0" d="M46.2,160.7c-0.2-6.7,1-12.9,3.7-18.7c2.9-6.5,7.8-10.7,15-12c1.4-0.3,2.8-0.3,4.2-0.3c0.3,0,0.8,0.1,0.9-0.1
		c0.2-0.3-0.3-0.5-0.4-0.7c-1-1.8-1.9-3.5-2-5.6c-0.1-3.1,2.5-4.8,4.6-5.4c0.1,0,0.2,0,0.3,0c0.6-0.1,1.2-0.3,1.8-0.4
		c-0.1-0.6-0.8-0.9-1.1-1.3c-1.9-2.5-3.4-5.2-3.3-8.4c0.1-1.8,0.6-3.4,1.9-4.8c0.9-0.9,1.9-1.4,3-1.1c1.3,0.4,0.8-0.3,0.6-0.8
		c-1.5-3.1-2.3-6.3-1-9.7c1.1-3.1,2.6-4.3,5.8-4.2c1,0,0.5-0.6,0.5-0.8c0-2.9-0.2-5.8,0.7-8.5c1-3.3,3.1-4.7,6.4-3.6
		c1.1,0.4,1-0.4,1.1-0.9c0.7-2.9,1.6-5.7,3.3-8.2c1.6-2.4,3.5-3.2,6.1-2.3c0.9,0.3,1.1,0.1,1.5-0.7c0.8-2,1.8-3.9,3-5.6
		c1.8-2.4,4.7-2.7,6.9-0.7c0.9,0.9,1,0.2,1.2-0.4c0.5-2.1,1.7-3.8,3.2-5.2c2.2-2.1,4.9-2.2,6.9,0c0.9,0.9,0.9,0.4,1.3-0.3
		c1.1-2,2.3-4,4.9-4.1c1.7-0.1,2.7,1.1,3.7,2.2c0.7,0.8,1.1,0.6,1.5-0.2c1.5-2.5,3.8-3.8,6.6-4.1c2.4-0.3,4.2,1.1,5.5,2.8
		c0.9,1.3,1.1,0.9,1.9-0.1c1.3-1.7,2.7-3.6,5.4-3.5c1.7,0.1,2.8,1.1,3.7,2.3c1,1.2,1.7,0.8,2.5-0.1c1.1-1.1,2.3-1.8,3.9-1.5
		c0.3,0,0.6,0,0.9,0.3c1.7,1.8,3.8,3.3,4.5,5.8c0.3,1.1,0.5,0.6,1,0.1c1.4-1.4,2.9-2.6,4.7-3.3c3.4-1.5,5.4,0.5,5.8,4.3
		c0.1,1.3,0.2,1.5,1.5,0.9c2.5-1.2,4.9-0.3,6.4,2c0.2,0.3,0.4,0.5,0.5,0.8c0.6,1,0.9,2.4,1.8,2.9c0.9,0.6,1.8-0.8,2.9-1
		c3.6-0.8,7.2,2,7.3,5.8c0,0.2,0,0.4,0,0.7c0,1.3-0.6,3,2,2.1c1.8-0.6,3,0.8,3.9,2.1c1.4,2.1,2.4,4.3,2.1,6.9c-0.1,0.7,0,1.4,1,1.5
		c4.1,0.4,5.6,2,6.2,6c0.3,1.6,0.3,3.2,0.3,4.8c0,0.4-0.2,0.9,0.6,1c3.3,0.7,5.4,2.7,6.6,5.8c1.1,2.9,1.5,5.8,1.2,8.8
		c-0.1,0.7,0.1,0.9,0.6,1.2c4,2.4,4.8,4.9,3.9,9.6c-0.4,2.1-1.2,3.9-2.5,5.6c-0.4,0.5-0.3,0.6,0.2,0.9c3.4,1.9,3.3,4.8,1.5,7.9
		c-0.6,1.1-1,1.4,0.4,2.3c8,5.1,13.2,12.4,14.9,21.7c1.7,9.2-0.7,17.6-6.5,25c-3.1,4-6.7,7.3-11.2,9.7c-3.3,1.7-6.8,2.7-10.5,2.3
		c-1.2-0.1-1.3,0.2-0.7,1.2c1.2,2,1.5,4.1,0.2,6.4c-0.7,1.1-1.6,1.8-2.7,2.1c-1,0.4-1.1,0.5-0.6,1.5c1.2,2.8,1.2,6.4-1,7.9
		c-2.2,1.4-2.9,1.2-3.2,2c-0.3,0.9,0.6,2.2,0.7,3.5c0.3,3.4-1,5.8-4.1,7.3c-1.1,0.5-2.3,0.6-3.3,0.2c-0.8-0.2-0.8,0-0.8,0.6
		c-0.1,2.2-0.7,4.2-3.1,5.2c-1.3,0.5-3.4,0.1-4.8-0.6c-1.1-0.5-1.4-1.4-1.8-1.2c-0.2,0.1-0.1,0.7-0.1,1.1c0,2.3-0.1,4.5-1.6,6.4
		c-1.5,2-3.6,3.1-6,2.4c-0.8-0.2-0.8-0.1-1.1,0.6c-1.2,2.3-2.7,4-5.4,3.8c-1.3-0.1-2.2-0.7-3.1-1.6c-0.2-0.2-0.5-0.6-0.7-0.6
		c-0.4,0.1-0.2,0.9-0.5,2c-0.3,1.4-0.7,3.4-2.8,5.1c-2.3,1.8-5.5,1.4-7.6-0.7c-0.6-0.6-0.7-0.5-1,0.2c-0.8,2.1-2.2,3.8-4.4,4.7
		s-4.8-0.1-6.2-2.4c-0.4-0.7-0.8-2.1-1.3-2.1s-1.1,0.8-1.8,1.2c-3,1.6-6.4,0.8-7.9-2.1c-0.4-0.8-0.7-1.2-1.5,0c-1.3,2-3.3,3-5.7,2.5
		c-2.5-0.5-4-2.3-5.1-4.5c-0.2-0.5-0.7-2.1-0.8-2.3c-0.2-0.6-0.7-0.2-1.3,0.5c-2.9,3-6.8,2.4-8.9-1.3c-0.5-0.8-0.6-2.1-1.3-2.5
		c-0.8-0.4-0.7,0.4-2.1,1.3c-3.4,2.2-6.5,0.1-7.7-3.6c-0.7-2.1-0.6-4.4-0.2-6.6c0.1-0.3-0.2-1-0.9-0.5c-1.2,1.2-2.8,1.9-4.4,2.5
		c-2.6,1-5.3-0.7-5.5-4.3c-0.1-2.1,1.6-6.4,0.8-7.1c-0.2-0.2-0.7,0.1-1,0.2c-2.7,0.8-4.8,0.3-6-1.5s-1-3.8-0.8-5.8s2-5.4,1.9-6.1
		c-0.1-0.6-0.8,0.1-2.5-0.4c-2.3-0.6-3.5-3.5-3.1-6.7c0.2-1.4,0.6-3,1.3-4.4c0.4-0.8-0.2-0.4-0.6-0.3c-7.1,1.8-13.9,0.4-20.4-2.6
		c-4.4-2-7.5-5.5-10.1-9.7c-1.9-3.1-3.3-6.3-4.4-9.7C46.3,166.6,46,163.5,46.2,160.7z"/>
	<g>
		<path class="st1" d="M144.6,231.2c-4.6,0.3-9.3-1.5-14.2-2.7c-6-1.5-11.4-4.4-16.5-7.8c-3.7-2.4-6.6-5.8-9.6-9
			c-3.1-3.3-4.9-7.3-6.9-11.3c-1.2-2.5-1.7-5.1-1.9-7.9c-0.2-4.3-0.2-8.6,1.3-12.8c1.4-3.9,3.5-7.4,6.1-10.6c1.6-2,3.1-4.1,5.2-5.7
			c2.5-1.9,5.3-3.2,8-4.6c4.7-2.3,9.5-4,14.3-6c4.7-1.9,7.1-5.7,7.8-10.7c0.3-1.9,0.3-3.7-0.6-5.4c-0.3-0.6-0.1-0.8,0.6-0.9
			c1.3-0.3,2.4-0.5,3.3,0.8c0.7,1,2.2,1.5,2.9,0.5c1.6-2.3,4-1.5,6.1-1.9c0.6-0.1,1.3,0,2,0c0.8,0,1.4,0.1,2,1
			c0.9,1.4,2.6,1.3,3.6-0.1c0.4-0.6,3.4-1.5,4-1.2s0.4,0.7,0.1,1c-2.8,4-2.1,8.2,0,12.1c1.9,3.4,5,5.3,8.9,5.9
			c9.2,1.4,15.8,6.9,21.9,13.3c4.1,4.4,5.9,9.8,6.9,15.6c1.1,7,0.2,13.7-3.2,20c-3.9,7.3-9.4,13.2-16.6,17.5
			c-5.8,3.4-11.7,6.3-18.2,8.3c-3.8,1.2-7.7,1.9-11.7,2.3C148.5,231.1,146.8,231.2,144.6,231.2z"/>
	</g>
	<g>
		<path class="st1" d="M93.9,130.8c0.2-6.8,0.9-13.5,4.3-19.7c2.4-4.5,5.8-8,10.2-10.7c3.8-2.4,7.9-3.9,12.3-4.5s8.8,0.1,12.9,1.9
			c4.6,2.1,9.1,4.4,12.8,7.9c1.8,1.7,4,1.5,5.8-0.2c1.8-1.8,3.6-3.7,5.3-5.5c2.7-2.9,6.1-4.8,10.1-5.4c5.9-0.9,11.4,0.3,16.9,2.5
			c4.6,1.9,8,5.2,10.9,9.1c2.7,3.5,4.3,7.6,5,11.9c0.6,3.5,1.6,6.9,1.3,10.5c-0.4,4-0.4,8.1-1.8,11.9c-1.3,3.7-3.2,7.1-5.3,10.4
			c-1.1,1.7-2.3,3.3-3.5,4.8c-0.3,0.3-0.5,0.9-1.3,0.4c-5.3-3.3-11-5.3-17.1-6.6c-0.5-0.1-1,0.2-0.4-0.7c2.8-3.7,2.1-8.2-0.7-11.6
			c-0.1-0.1-0.2-0.2-0.3-0.3c-0.5-0.4-1.1-1-0.8-1.4c0.2-0.3,1.1-0.1,1.7,0c1.7,0.2,3.5,0.4,5.2,0.8c0.6,0.1,0.8,0.4,1.1,0.8
			c2.3,3,2.2,6.3,1,9.6c-0.5,1.4-0.1,2.4,1.1,3.1c1.2,0.8,2.1,0,2.9-0.8c1.7-1.7,2.8-6.5,1.1-10.1c0-0.1-0.1-0.2-0.1-0.3
			c-1-2.1-1-2.1,1.2-2.2c1.1-0.1,1.7-0.9,1.6-1.7c0-1.2-0.5-2.3-2-2.7c-2.1-0.5-4.2-0.4-6.2-0.6c-3.6-0.2-7.3-0.5-10.9-0.5
			c-2.6,0-5.2-0.4-7.8-0.3c-0.8,0.1-0.9-0.4-0.8-1c0.3-1.2,0.6-2.5,0.9-3.7c0.3-1.3,0.2-2.4-1-3.1c-1.1-0.6-2.2,0-3,1.5
			c-1,1.8-1.9,3.7-1.8,5.9c0,0.6-0.2,0.7-0.8,0.7c-2.8,0.2-5.5-0.3-8.3,0.3c-0.6,0.1-0.9-0.6-1.2-1.1c-1.1-1.8-2.2-3.6-3.8-5.2
			c-0.8-0.8-1.6-1.3-2.7-0.6c-0.9,0.7-0.9,1.6-0.4,2.6c0.6,1.2,1.1,2.5,1.6,3.8c0.2,0.6,0.4,0.8-0.5,0.9c-8.6,0.4-17.2,1.6-25.6,3.3
			c-1.8,0.3-2.4,1.2-1.7,2.2c0.4,0.7,1.2,0.5,1.7,0.6c0.9,0.2,0.8,0.2,0.4,0.9c-1.4,2.6-1.8,5.3-1.1,8.2c0.4,1.6,1.4,2.8,2,3.4
			c0.6,0.6,2,0.9,2.6,0.5c0.7-0.4,0.8-1.1,0.7-1.9c-0.3-1.2-0.7-2.4-0.9-3.7c-0.5-3.1,1-5.5,2.6-7.8c0.2-0.3,0.5-0.2,0.7-0.2
			c1.8,0,3.6-0.3,5.4-0.6c0.6-0.1,1.3,0.2,0.8,1.2c-1.8,3.8-2.1,7.6,0,11.4c0.4,0.7,0,0.9-0.5,1.1c-6.1,1.4-11.7,4-17.1,7.1
			c-0.5,0.3-0.6,0.1-1-0.1c-6-4.9-10.6-10.8-12.5-18.5C94,136.2,93.8,133.5,93.9,130.8z"/>
	</g>
	<g>
		<path class="st1" d="M52.1,160.4c-0.1-6.1,0.8-11.4,3.3-16.4c1.6-3.1,3.5-5.9,6.9-7.5c5.5-2.5,10.7-2.2,15.6,1.7
			c2.3,1.8,7.2,7.5,8.2,8.7c0.4,0.5,0.3,2.1,0.1,2.5c-1.5,2.4-2.9,4.9-2.8,7.8c0.1,2.8,1.8,4.6,4.6,4.4c0.9-0.1,1,0.1,1,0.8
			c0,0.6,0,1.2,0,1.8c0,2.8,1.5,4.3,3.3,5c1,0.4,2.6,0.4,2.9,0.8c0.7,1.2-2.5,5.8-4.6,8.2c-3.1,3.5-6.6,6.1-11.2,7.2
			c-6.5,1.6-12-0.6-17.3-4.1c-5.4-3.5-7.8-9-9.4-14.8C52,164.5,51.9,162.1,52.1,160.4z"/>
	</g>
	<g>
		<path class="st1" d="M237.2,156c-0.1,7.3-2.8,13.4-7.8,18.7c-2.9,3.1-6.2,5.6-10.2,7c-2.8,1-5.5,0.7-8.3-0.2
			c-2.2-0.7-3.8-2.2-5.7-3.5c-0.4-0.3-0.8-0.7-0.9-1.3c-0.9-3.4-2-6.8-4.4-9.6c-0.3-0.3-0.9-1,0.4-1c1.2,0,2.7-1.9,2.7-3.2
			s0.1-2.7-0.4-4c-0.2-0.6-0.1-0.7,0.5-0.7c1.6,0,2.3-1.1,2.9-2.5c1.4-3.3,1.3-6.5-0.1-9.8c-0.2-0.4-0.1-0.5,0.1-0.8
			c2.6-2.9,4.4-6.4,6.8-9.5c2.8-3.6,7.8-4.6,11.7-2.2c5.9,3.7,9.7,9,11.7,15.6C236.9,151.4,237.3,153.7,237.2,156z"/>
	</g>
	<g>
		<path class="st1" d="M149.1,238.5c-0.2-1.5,0.6-1.8,1.8-1.8s2.9-0.3,4.3-0.6c1-0.2,1.8-0.3,1.5,1.2c-0.3,1.9-0.7,3.7-1.7,5.3
			c-0.9,1.5-2.4,2-3.6,0.4C150.3,241.8,149.2,240.4,149.1,238.5z"/>
	</g>
	<g>
		<path class="st1" d="M111.9,227.1c-0.2,1.5-0.7,3.7-2.7,5.1c-1.1,0.8-2,0.5-2.4-0.7c-0.7-2.3-1.1-4.7-0.6-7.2
			c0-0.1,0.4-2.7,2.3-1.2c0.8,0.6,1.6,1.1,2.3,1.7C111.5,225.2,112.1,225.6,111.9,227.1z"/>
	</g>
	<g>
		<path class="st1" d="M126,232.7c2.5,0.9,4.9,1.7,7.2,2.6c0.8,0.3,0.9,2.7,0.2,3.8c-1.3,2.4-3.1,2.5-4.5,0.2c-1.2-2-2-4.1-3-6.2
			C125.8,232.9,125.7,232.7,126,232.7z"/>
	</g>
	<g>
		<path class="st1" d="M96.5,222.2c0.6-2.8,0.8-5.8,1.6-8.6c0.2-0.6,0.1-0.7,0.6-0.1c1.3,1.5,2.6,2.9,3.9,4.3c0.4,0.4,0.2,0.6,0,1
			c-1.3,1.8-3,3-4.8,4.2C96.9,223.6,96.2,223.7,96.5,222.2z"/>
	</g>
	<g>
		<path class="st1" d="M90,212.8c-0.7-0.2-0.7-1-0.6-1.5c0.3-2.7,2.1-8.3,2.8-8.4c0.7-0.1,1,0.4,1.7,1.4s1.7,3,1.6,4.1
			S91.2,212.8,90,212.8z"/>
	</g>
	<g>
		<path class="st1" d="M166.1,239.4c-0.5,1.5-2.2,1.8-3.4,0.7c-1.3-1.2-1.5-2.9-2.1-4.5c-0.2-0.5,0.4-0.6,0.7-0.7
			c1.5-0.5,3.1-0.9,4.6-1.4c0.7-0.2,0.9,0.1,0.9,0.7C166.8,234.8,166.5,238.3,166.1,239.4z"/>
	</g>
	<g>
		<path class="st1" d="M120.3,235.5c-0.9,0.9-2.4,0.7-2.9-0.5c-0.9-2-1.4-3.9-1.8-6.2c-0.1-0.7-0.2-1.1,0.9-0.7
			c1.1,0.4,2.4,1.2,4.4,2.2C123,231.5,121.3,234.5,120.3,235.5z"/>
	</g>
	<g>
		<path class="st1" d="M203,213.6c0,1.2-0.6,2-1.6,2.6c-1.1,0.6-1.7-0.3-2.3-0.9c-2-1.9-1.5-2.6-0.5-4.3s1.1-2.8,2-2.7
			c1.1,0.1,1.5,1.8,1.8,2.5C202.8,211.6,203,212.7,203,213.6z"/>
	</g>
	<g>
		<path class="st1" d="M90.5,195.8c0,1.3-2.3,2.2-3.5,2.6c-1.2,0.4-1.1-0.2-0.9-0.9c0.7-3.1,2.2-5.9,3.4-8.8
			c0.1-0.1,0.2-0.3,0.3-0.3C90.1,188.5,90.3,193.5,90.5,195.8z"/>
	</g>
	<g>
		<path class="st1" d="M210.5,192.8c0,1.6-1.2,1.9-2.4,2.2s-2.4-0.5-2.4-1.1c0-1.1,0.3-6,0.6-6.2c0.1-0.1,1.1,0.4,1.9,1.3
			C209.4,190.2,210.4,191.9,210.5,192.8z"/>
	</g>
	<g>
		<path class="st1" d="M176.9,233.1c-0.7,2-2.2,2.2-3.5,0.6c-1.8-2.2-1.8-2.2,0.8-3.4c0.6-0.3,2.2-1.1,2.4-1.2
			c0.5-0.2,0.8,0,0.8,0.5C177.4,229.8,177.1,232.3,176.9,233.1z"/>
	</g>
	<g>
		<path class="st1" d="M139.6,236.5c1.8,0.3,3.4,0.5,5,0.7c0.3,0,0.4,0.2,0.5,0.5c0.1,1-1,2.9-2,3.2c-1.4,0.5-2.3,0-2.9-1.3
			c-0.3-0.7-0.7-1.4-1.1-2.1C138.5,236.5,139.1,236.4,139.6,236.5z"/>
	</g>
	<g>
		<path class="st1" d="M207.3,202.9c0,0.8-0.5,1.6-1.4,1.9c-1,0.3-1.9-0.3-2.7-0.7c-0.1,0-0.2-0.3-0.1-0.4c0.5-1.7,1.1-3.3,1.6-5
			c0.2-0.5,0.4,0,0.5,0.1C206.2,200,207.2,202,207.3,202.9z"/>
	</g>
	<g>
		<path class="st1" d="M194.2,222.3c-0.7,0.3-1.4,0-2-0.4c-0.4-0.2-0.7-0.5-1.1-0.7c-0.6-0.5-0.9-0.9-0.1-1.5
			c0.8-0.7,1.5-1.4,2.2-2.2c0.6-0.6,0.8-0.7,1,0.3C194.4,218.6,195,221.9,194.2,222.3z"/>
	</g>
	<g>
		<path class="st1" d="M184.8,227.2c-0.1,0.8-0.4,1.8-1.1,2.5c-0.9,0.8-1.5,0.9-2.1-0.3c-1-2.1-1-2.3,1-3.5c0.4-0.3,1.6-1,1.7-1
			c0.5-0.3,0.6,0,0.6,0.5C184.9,225.4,184.8,226.6,184.8,227.2z"/>
	</g>
	<g>
		<path class="st0" d="M173.8,259.2c-1.3,0.5-3.2,0.4-3.7,2c-0.6,1.6,1.3,3.2,2.9,3.2h0.1c3.3-0.1,7-2.3,7.7-5.8
			c0.6-3.3-1.3-4.8-3.5-6.2c-0.6-0.4-1.6-0.6-1.9-1.1c-0.2-0.5,1.2-1.2,2.1-1.4c0.1,0,0.1,0,0.2,0c0.5,0,0.8,0.2,1.1,0.2
			c0.2,0,0.5-0.1,0.7-0.4c1.3-1.4-0.6-3-1.9-3.2c-0.3-0.1-0.5-0.1-0.8-0.1c-2.9,0-6.2,2.5-6.2,5.4c0,2.4,1.9,3.2,3.7,4.2
			C176.2,257.1,176.1,258.3,173.8,259.2z"/>
		<path class="st0" d="M116.5,258.5c0.1,0,0.2,0,0.4,0c0.4,0,0.7,0.1,1.1,0.1c0.8,0,1.6-0.1,2.4-0.3c2.1-0.5,3.5-1.9,4.2-3.9
			c0.9-2.3,0.4-4.6-0.9-6.7c-1-1.6-3-3-5.1-3c-1.3,0-2.6,0.5-3.7,1.7c-2.7,2.8-3.6,6.2-3.6,9.9c0,3.3,0.5,6.5,1.9,9.5
			c0.4,0.9,1.1,1.2,1.9,1.2c0.3,0,0.6,0,0.9-0.1c1.1-0.3,1.1-1.4,0.9-2.3c-0.3-1.6-0.8-3.1-1.2-4.6
			C115.1,258.9,115.7,258.5,116.5,258.5z M115.6,253.2c0.4-1.4,1-2.7,2-3.7c0.3-0.3,0.5-0.5,0.8-0.5s0.5,0.1,0.8,0.4
			c1,1,1.7,2.1,1.2,3.4c-0.6,1.7-2.6,1.6-3.7,1.7c-0.1,0-0.2,0-0.3,0C115.6,254.6,115.4,254.1,115.6,253.2z"/>
		<path class="st0" d="M143.3,253.9c-1.3,2-1.9,4.1-2,6.5c-0.1,3.3,2.5,6.7,6.4,6.9c0.3,0,0.6,0,0.9,0c3.2,0,4.3-0.8,5.3-1.6
			c1-0.9,1.2-1.4,0.8-2.3c-0.2-0.5-0.5-0.6-1-0.6c-0.3,0-0.7,0.1-1.1,0.2c-0.8,0.2-2.6,0.7-4.3,0.8c0,0,0,0-0.1,0
			c-0.8,0-1.9-0.9-2.3-1.7c-0.3-0.6-0.4-0.8,0.4-0.9c1.8-0.2,3.5-0.7,5.1-1.6c2.9-1.5,3-4.6,1.7-6.1c-1.1-1.3-2.9-1.9-4.6-1.9
			C146.5,251.4,144.4,252.2,143.3,253.9z M149.7,255.9c0.3,0.5-0.4,0.8-1,1.1c-0.4,0.2-1.4,0.4-2.1,0.4c-0.3,0-0.5,0-0.6-0.1
			c-0.1-0.3,0.1-0.5,0.3-0.7c0.3-0.3,0.7-0.6,1.1-0.9c0.4-0.2,0.7-0.3,1.1-0.3C149.1,255.4,149.5,255.6,149.7,255.9z"/>
		<path class="st0" d="M136.9,251.6c-1-0.8-2.2-1.2-3.5-1.2c-1.1,0-2.3,0.3-3.2,1c-2.4,1.6-2.9,4.1-2.9,7.2c0.2,2.1,0.2,4.7,1.6,7
			c0.4,0.6,0.9,1,1.4,1c0.1,0,0.3,0,0.4,0c0.8-0.2,1.2-0.9,1.1-1.7c0-0.4,0-0.9-0.1-1.3c-0.4-1.7-0.6-3.5-0.6-5.3
			c0.1-2.2,0.6-3.1,2.1-3.1c0.5,0,1,0.1,1.7,0.2c0.3,0.1,0.5,0.1,0.8,0.1c0.7,0,1.4-0.3,1.8-1.2
			C138.1,253.1,137.7,252.2,136.9,251.6z"/>
		<path class="st0" d="M161.3,266.9c2.1-0.2,4.1-1.4,5.1-3.2c1.8-3.1,0.4-5.4-1.9-7.1c-1-0.8-3.4-1.2-3.5-1.9
			c-0.1-0.6,0.9-1.2,2.1-1.2c0.1,0,0.2,0,0.3,0c0.5,0,0.9,0.2,1.3,0.2c0.3,0,0.7-0.2,1-0.7c1.1-1.8-1.1-3.5-2.7-3.7l0,0
			c-3.5,0-8.4,4.2-5.8,7.9c1.3,1.8,4.3,1.2,5.3,2.8c1.5,2.4-2.9,2.6-4,3.4c-2.5,1.8,0.5,3.4,2.5,3.4
			C161.1,266.9,161.2,266.9,161.3,266.9z"/>
	</g>
	<g>
		<path class="st0" d="M232.8,64.4c-0.6-2-2-3.1-3.8-3.8c-0.9-0.3-1.8-0.5-2.7-0.5c-3,0-4.8,2.1-4.5,5.6c0.1,0.9,0.4,1.7,0.6,2.6
			c0.1,0.3,0.1,0.8-0.2,1c-0.1,0-0.1,0-0.2,0c-0.2,0-0.5-0.2-0.7-0.4c-0.6-0.5-1.3-1-2-1.5c-0.5-0.4-1-0.6-1.6-0.6
			c-0.3,0-0.6,0.1-0.9,0.2c-1,0.5-1,1.3-0.9,2.2c0,0.8,0.5,1.3,1.1,1.9c0.4,0.9,1.5,1.2,2.3,1.8c0.8,0.5,1.7,0.8,2.7,0.8
			c2.2,0,4.4-1.4,4.7-4.3c0.1-1.4-0.3-2.8-0.6-4.1c-0.2-1,0.1-1.4,0.8-1.4c0.1,0,0.3,0,0.5,0c1.2,0.2,2.3,0.6,3,1.7
			c0.3,0.4,0.5,0.8,1,0.8c0.2,0,0.4-0.1,0.6-0.2C232.6,65.9,233.1,65.5,232.8,64.4z"/>
		<path class="st0" d="M99,33.4c-1.1,0.9-1.9,1.9-2.7,3.1c-1.1,1.7-1.6,3.6-0.9,5.5c0.9,2.6,2.7,4.5,5.2,5.6
			c1.1,0.5,2.4,0.8,3.6,0.8c2.1,0,4.2-0.7,5.4-2.6c1.6-2.4,0.8-4.6-0.2-6.9c-0.7-1.4-1.7-2.4-2.6-3.6c-1.5-2.2-3.5-3.9-5.2-6
			c-1.1-1.4-2.3-2.7-3.6-3.9c-0.4-0.4-0.9-0.7-1.4-0.7c-0.3,0-0.6,0.1-0.9,0.3c-0.9,0.7-0.6,1.4-0.2,2.2c0.9,1.7,2.2,3.2,3.5,4.7
			C99.7,32.5,99.7,32.9,99,33.4z M100.1,38.7c0.5-0.7,1.1-1.3,1.7-1.9c0.2-0.2,0.4-0.3,0.6-0.3s0.4,0.1,0.6,0.4
			c0.4,0.6,0.8,1,1.1,1.6c0.3,0.5,0.6,1.1,0.9,1.6c0.1,0.1,0.4,0.7,0.5,0.8c0.5,0.9,0.7,1.8,0.3,2.4c-0.4,0.4-0.8,0.5-1.3,0.5
			c-0.6,0-1.3-0.2-2-0.4c-1-0.3-1.7-0.9-2.3-1.7C99.5,40.8,99.5,39.7,100.1,38.7z"/>
		<path class="st0" d="M193.6,50.9c1.2-1.7,2.6-4.7,3.7-7.2c1.6-3.4,3.3-6.6,4.5-10.2c0.7-2.3,0-4-2.2-5c-1.2-0.5-2.5-0.7-3.6-0.7
			c-2.1,0-4,0.7-5.9,1.8c-3.6,2.3-3.9,5.4-1.4,8c1.2,1.3,2.9,1.7,4.7,1.9c0,0,0.1,0,0.2,0h0.1c0.3,0,0.8,0,0.3,0.7
			c-1,1.7-1.5,3.7-2.6,5c-0.8,1.3-1.4,2.3-2,3.3c-0.7,1.3-0.2,3.4,0.8,3.9c0.2,0.1,0.5,0.2,0.8,0.2
			C191.7,52.7,192.8,52.2,193.6,50.9z M194,35.4c-1.1,0-2.1-0.2-2.5-0.8c-0.4-0.5,0.1-0.9,0.3-1.1c1.4-1.1,3.1-1.8,4.9-1.8
			c0.1,0,0.1,0,0.2,0c1.2,0,1.5,1,0.6,2.4C197,35,195.5,35.4,194,35.4z"/>
		<path class="st0" d="M94.5,45.7c-0.3-0.3-0.6-0.9-1.1-1.3c-2.1-1.7-4.5-2.4-7.1-2.8c-0.2,0-0.4,0-0.7,0c-3.1,0-6.4,2.7-6.8,5.7
			c-0.2,1.3,0.5,2.8,1.5,2.8c0.1,0,0.1,0,0.2,0c1.1,0,1.3-1,1.5-1.8c0.5-1.5,1.7-2.7,3.1-2.7c0.1,0,0.1,0,0.2,0
			c1.1,0.1,1.1,0.3,0.7,1.1c-1.3,2-1.3,4.1-0.7,6.3c0.8,2.5,2.4,3.7,4.3,3.7c0.9,0,2-0.3,3-0.8C96.2,54.2,96.7,48.5,94.5,45.7z
			 M91.1,51.9c-0.3,0.5-0.8,0.6-1.2,0.6h-0.1c-0.5,0-0.6-0.5-0.7-1c-0.4-1.4,0.2-2.6,1.1-3.6c0.1-0.2,0.3-0.3,0.4-0.3
			c0.2,0,0.4,0.2,0.7,0.7C91.5,49.3,91.9,50.5,91.1,51.9z"/>
		<path class="st0" d="M151.4,26c-1.5,0.1-2.8,0.7-4.1,1.3c-2.2,1-3.1,3.5-2.1,5.7c0.8,2,3.3,3.5,5.8,3.5c0.1,0,0.1,0,0.2,0
			c2.3-0.1,4.7-1.4,5.5-3.2c0.9-1.8,0.7-2.3,0.7-3.2c-0.1-1.9-0.5-3.8-1.1-5.6c-0.5-1.6-0.9-3.4-2.7-4.3c-0.8-0.4-1.6-0.6-2.4-0.6
			c-1.7,0-3.2,0.9-4.6,1.9c-0.7,0.5-1,1.4-0.4,2.3c0.4,0.6,0.9,1,1.5,1c0.2,0,0.4,0,0.7-0.1c0.8-0.3,1.6-0.5,2.1-1.2
			c0.2-0.2,0.4-0.4,0.7-0.4c0.1,0,0.3,0.1,0.4,0.2c0.6,0.5,0.6,1.3,0.8,2C152.4,26,151.8,26,151.4,26z M152.7,30.3
			c0.5,0,0.5,0.6,0.3,0.9c-0.4,0.6-1,0.7-1.5,0.7c-0.3,0-0.7-0.1-1-0.1c-0.4-0.1-1.1-0.3-0.7-0.6c0.7-0.6,1.7-0.9,2.6-0.9
			C152.4,30.3,152.5,30.3,152.7,30.3z"/>
		<path class="st0" d="M224.8,54.2c-0.5-1.3-1.3-2.4-2.4-3.2c-1.6-1.1-3.2-1.6-4.9-1.6c-2.2,0-4.4,0.9-6.2,2.6
			c-1.8,1.6-2.7,3.9-1.9,6.3c0.9,2.7,2.7,4.8,5.9,5.3c0.3,0,0.5,0.1,0.8,0.1c0.5,0,0.9-0.1,1.1-0.5c0.4-0.8,0.2-1.6-0.3-2.4
			c-0.7-1.1-1.9-1.7-2.5-2.7c-0.1-0.1-0.2-0.3-0.3-0.4c-0.3-0.5-1-1-0.4-1.5c0.1-0.1,0.2-0.1,0.3-0.1c0.4,0,0.8,0.4,1.1,0.8
			c1,1,2.2,1.8,3.5,2.4c0.7,0.3,1.4,0.5,2.2,0.5c1,0,1.9-0.3,2.7-0.9C224.8,57.7,225.5,56.1,224.8,54.2z M220.6,55.4
			c-0.1,0.2-0.2,0.2-0.3,0.2c-0.2,0-0.4-0.2-0.6-0.3c-0.8-0.4-2.1-1-2.5-1.3s-0.1-0.4,0.2-0.5c0.1,0,0.1,0,0.2,0
			c0.9,0,1.7,0.4,2.5,0.8C220.5,54.7,220.8,55,220.6,55.4z"/>
		<path class="st0" d="M185.1,32.4c0-1.9-0.5-3.7-1-5.5c-0.7-2.4-2.6-3.4-4.5-3.4c-1.5,0-2.9,0.6-3.8,1.7c-0.6,0.6-0.4,1.2-0.2,1.7
			s0.8,0.9,1.2,0.9h0.1c0.5-0.1,1.5-0.4,2.2-0.7c0.2-0.1,0.3-0.1,0.4-0.1c0.4,0,0.7,0.3,0.9,0.5c0.5,0.5,0.5,1.2,0.3,1.8
			c-0.1,0.1-0.2,0.2-0.3,0.2c-0.2,0-0.4-0.1-0.6-0.1c-0.3,0-0.9-0.1-1.6-0.1c-0.5,0-1,0-1.4,0.1c-2.7,0.3-4.6,2.4-4.4,4.8
			c0.2,1.9,2.5,3.5,3.1,3.8s2.3,0.9,3.7,0.9c0.2,0,0.4,0,0.6,0C183.2,38.1,185,35.6,185.1,32.4z M180.1,34.1c-0.3,0.2-0.6,0.3-1,0.3
			s-0.7-0.1-1-0.3c-0.5-0.3-1-0.5-0.7-0.7s0.7-0.2,1-0.2c0.4,0,0.8,0.1,1.2,0.2C179.9,33.6,180.4,33.8,180.1,34.1z"/>
		<path class="st0" d="M85.3,62.3c0.6,0,1.2-0.3,1.6-0.9c0.7-1,0.6-2-0.1-2.9c-0.3-0.3-0.6-0.7-1-0.9c-2.8-1.9-5.9-3.2-9.1-4.1
			c-0.6-0.2-1.2-0.3-1.8-0.3c-1.3,0-2.6,0.5-3.6,1.9c-0.8,1.1-1,2.2-0.9,3.4c0.1,1.1-0.1,1.6-0.9,1.6c-0.2,0-0.4,0-0.7-0.1
			c-0.2,0-0.4-0.1-0.6-0.1c-1.2,0-2.4,0.9-3,2.1c-1.7,3.5-1.1,6.5,2.3,9.6c1.3,1.4,3.1,2.6,5,3.4c0.4,0.2,0.8,0.3,1.3,0.3
			s1-0.2,1.3-0.7c0.6-0.9-0.1-1.6-0.7-2.1c-1.3-1.1-2.4-2.5-4-3.4c-1.1-0.7-1.7-1.9-2.2-3.2c-0.2-0.6-0.1-1.3,0.2-1.7
			c0.1-0.1,0.2-0.1,0.3-0.1c0.3,0,0.7,0.3,1,0.4c1.5,0.8,3,1.5,4.5,2.2c0.4,0.2,0.8,0.3,1.1,0.3c0.8,0,1.4-0.4,2-1.2
			c0.8-1,0.4-2-0.1-2.9c-0.8-1.2-1.9-2.3-2.2-3.8c-0.1-0.4-0.2-1,0-1.3c0.1-0.1,0.1-0.1,0.2-0.1c0.3,0,0.6,0.2,0.9,0.3
			c0.6,0.2,1.3,0.4,1.9,0.6c2.2,0.8,4.1,2.1,6.1,3.2C84.5,62.2,84.9,62.3,85.3,62.3z"/>
		<path class="st0" d="M134.9,27.3L134.9,27.3c0.6,0,1.1,1.1,1.3,1.8c0.6,1.6,1,3.2,1.6,4.8c0.5,1.3,1.5,2,2.6,2
			c0.3,0,0.6,0,0.9-0.1c1.5-0.4,1.6-1.8,1.2-2.8c-1.1-2.9-1.6-6-3.7-8.4c-1.3-1.5-2.9-2.4-4.4-2.4c-1.3,0-2.6,0.6-3.7,2
			c-0.5,0.6-0.8,0.9-1.2,0.9c-0.3,0-0.7-0.2-1.2-0.6c-1-0.8-1.9-1.2-2.8-1.2c-1.8,0-3.4,1.5-4,3.3c-1.1,3.7-0.5,7.3,1.3,10.7
			c0.4,0.7,0.9,1.2,1.6,1.2c0.2,0,0.4,0,0.6-0.1c1.1-0.4,1.4-1.5,1-2.4c-0.5-1.1-0.5-2.3-0.7-3.4c-0.1-1.3-0.5-2.6-0.1-3.9
			c0.1-0.2,0.2-0.5,0.4-0.7c0.1,0,0.2-0.1,0.3-0.1c0.3,0,0.6,0.3,0.8,0.5c0.9,1.2,1.3,2.6,1.3,4.2c0,0.7,0.2,1.3,0.6,1.8
			c0.5,0.9,1.3,1.5,2.1,1.5c0.2,0,0.4,0,0.7-0.1c1.1-0.4,2-1.3,1.7-2.7c-0.3-1.3-0.1-2.6,0.4-3.9C133.9,28.3,134.3,27.3,134.9,27.3z
			"/>
		<path class="st0" d="M167,25.6c0.5,0,0.9,0.2,1.4,0.7c0.3,0.3,0.6,0.7,1,0.7c0.1,0,0.3,0,0.4-0.1c0.7-0.3,1-0.8,1.1-1.6
			c0.2-2-1.7-3.8-4-3.8c-0.3,0-0.7,0-1,0.1c-3.5,0.8-6.2,4.4-6.6,8.6c0,0.9-0.2,1.7,0.1,2.6c1,2.6,3.4,4,6,4c1.1,0,2.3-0.3,3.3-0.8
			c0.8-0.5,1.5-1.2,1.3-2.3c-0.1-0.4-0.3-0.6-0.5-0.8c-0.6-0.5-2-0.5-2.3-0.5c0,0,0,0-0.1,0c-0.4,0-0.7,0-1.1,0
			c-0.6,0-1.2-0.1-1.7-0.4c-1.6-1-1.5-3.3,0.2-4.9C165.6,26.1,166.3,25.6,167,25.6z"/>
		<path class="st0" d="M202.6,49.5c0.9,1.2,2.8,1.9,4.6,1.9c1,0,1.9-0.2,2.7-0.6c1.6-1,3.2-2.1,4.6-3.5c1.1-1.2,1.4-2.5,0.6-3.4
			c-0.3-0.4-0.9-0.6-1.4-0.6c-0.6,0-1.4,0.3-2,0.8c-0.4,0.3-0.7,0.7-1.1,1c-0.7,0.7-1.4,1.3-2.3,1.8c-0.5,0.3-1,0.4-1.5,0.4
			c-0.6,0-1.1-0.2-1.6-0.8c-0.8-1-0.5-1.9,0.3-2.9c1-1.2,1.7-2.5,2.5-3.9c0.4-0.7,0.5-1.4-0.3-2c-0.4-0.3-0.8-0.5-1.2-0.5
			c-0.3,0-0.5,0.1-0.9,0.2c-1.5,0.5-2,1.9-2.8,3C200.6,43.1,199.4,46.7,202.6,49.5z"/>
	</g>
	<g>
		<path class="st0" d="M160.8,191.8c5.3-0.1,10.1,0.4,14.6,2c1.9,0.7,3.3,2,4.5,3.5c0.7,1,0.6,2.2-0.2,3.1c-0.8,0.9-1.9,1.2-3.1,0.7
			c-0.4-0.2-1-0.3-1.3-0.6c-2.1-2.6-5.2-2.7-8-3c-4.1-0.5-8.3-0.3-12.5,0c-5.2,0.5-10.3,1-15.5,1.8c-4.3,0.7-8.6,1.1-12.8,2.1
			c-3.1,0.7-5.9,2.1-7.7,5c-0.6,1.1-1.4,1.9-2.6,1.2c-1-0.7-1.3-1.7-0.9-3c1.3-3.9,4.2-6.1,7.8-7.4c3.6-1.4,7.4-1.8,11.2-2.3
			c3.4-0.5,6.8-1.1,10.3-1.6c3.4-0.4,6.7-0.7,10.1-1C157,191.9,159.2,191.6,160.8,191.8z"/>
	</g>
	<g>
		<path class="st0" d="M145.4,208.9c-2.1,0-4.3,0.3-6.3-0.9c-1-0.5-1.8-1.1-1.5-2.3c0.3-1.1,1.3-1.4,2.4-1.4c4.9,0.1,9.7-1,14.5-1
			c1.5,0,2.8,0.5,3.9,1.6c0.6,0.6,0.6,1,0,1.7c-0.8,0.9-1.9,1.5-3,1.6C152.1,208.5,148.8,209,145.4,208.9z"/>
	</g>
	<g>
		<path class="st0" d="M157,154.6c3.1,0.1,5.1,1.7,6.5,4.2c0.7,1.2,0.2,2.8-1,3.5c-1,0.6-2.8,0.3-3.6-0.7c-0.7-1-1.6-1.7-2.8-1.8
			c-1.6-0.2-3.1-1.3-3.1-2.5c0-1.4,1.6-2.7,3.3-2.8C156.6,154.6,156.8,154.6,157,154.6z"/>
	</g>
	<g>
		<path class="st0" d="M136.3,160.7c0-2.3,2.5-4.8,5.4-5.4c2.2-0.5,3.6,0.1,4.2,1.7c0.4,1.4-0.7,3.2-2.1,3.2c-1.4,0-2.3,0.6-2.8,1.8
			s-1.5,1.8-2.7,1.5C136.9,163.2,136.2,162.2,136.3,160.7z"/>
	</g>
	<g>
		<path class="st0" d="M74.8,160.4c-0.1,1.5,0.7,2.6,1.5,3.8c0.3,0.5,0.9,1,0.4,1.6s-1.2,0.8-2,0.6c-3.1-0.7-4.4-3.1-4.1-6.7
			c0.3-3.6,2.3-6,5.1-7.9c0.3-0.2,0.5-0.2,0.2-0.6c-1-1.4-1.8-3.1-3.3-4.1c-1.9-1.2-3.7-1-5.5,0.7c-2.6,2.4-4.3,5.3-5.4,8.7
			c-0.2,0.7-0.3,2-1.7,1.7c-1.2-0.3-1.2-1.2-1.2-2.1c0.1-3.5,1.8-6.4,3.8-9.1c1.6-2,3.4-3.8,6-4.6c3-0.9,5.5,0.2,7.7,2
			c3,2.5,5,5.6,6.1,9.4c0.6,2-0.7,3.6-2.6,3.4c-1.2-0.1-1.6-1.1-1.9-1.9c-0.4-0.8-0.4-0.6-0.9,0C75.7,156.8,74.9,158.4,74.8,160.4z"
			/>
	</g>
	<g>
		<path class="st0" d="M216.8,159.1c0.3-2.3-0.8-4.2-2.4-6c-0.4-0.5-0.6-0.7-1,0.2c-0.7,2-1,3.9-0.9,6c0,1.2-0.3,2.2-1.4,2.9
			c-1.8,1-3.8-0.4-3.9-2.7c0-5,1.5-9.4,4.9-13.2c2.3-2.5,4.9-4.3,8.5-4.1c3.7,0.1,7.7,3.4,8.7,7c0.3,1,0.2,1.7-0.6,2.3
			c-1,0.8-1.5-0.2-1.9-0.8c-1.4-1.8-2.9-3.4-5.3-3.9c-1.8-0.4-4.8,1-5.1,1.5c-0.4,0.8-0.1,1.2,0,1.3c2.6,1.8,4.2,4.2,5,7.2
			c0.4,1.6,0.4,3.2,0,4.7c-0.4,1.3-1.3,2.1-2.5,2c-1.3-0.2-2.1-1.2-2.1-2.6C216.8,160.3,216.8,159.9,216.8,159.1z"/>
	</g>
</g>
</svg>
